PathFileType	4	(X/Y/Z)	C:\Users\WrightLab\Desktop\Jo\P1.2Trial32.trc
DataRate	CameraRate	NumFrames	NumMarkers	Units	OrigDataRate	OrigDataStartFrame	OrigNumFrames
100.00	100.00	       29	19	mm	100.00	634	       724
Frame#	Time	Headset_Front			Headset_Back			Headset_Left			Headset_Right			Left_Shoulder			Right_Shoulder			Sternum			C7			Left Elbow			Right Elbow			Left Wrist			Right Wrist			Left ASIS			Right ASIS			S2			Left Knee			Right Knee			Left Ankle			Right Ankle			
		X1	Y1	Z1	X2	Y2	Z2	X3	Y3	Z3	X4	Y4	Z4	X5	Y5	Z5	X6	Y6	Z6	X7	Y7	Z7	X8	Y8	Z8	X9	Y9	Z9	X10	Y10	Z10	X11	Y11	Z11	X12	Y12	Z12	X13	Y13	Z13	X14	Y14	Z14	X15	Y15	Z15	X16	Y16	Z16	X17	Y17	Z17	X18	Y18	Z18	X19	Y19	Z19	

634	6.330	-105.42661	1536.03369	2169.99121	-247.64078	1512.03735	2261.43799							-111.19150	1290.10669	2371.34277	-41.56337	934.74744	2121.94653	-310.44727	1233.72864	2227.50342				-64.18835	998.71973	2416.76636				-186.76794	801.39532	2497.48682	-384.46472	778.75232	1906.63647	-249.11720	921.29645	2356.01221							-290.87686	512.79614	2454.97412	-336.49118	472.36713	2127.01245	-28.33372	254.44514	2338.67456				
635	6.340	-109.67434	1536.81836	2174.06567	-253.59398	1512.81689	2263.99292							-119.46019	1291.21753	2375.47144	-44.90955	935.66565	2126.75586	-316.49875	1233.62366	2227.12524				-72.31471	999.26257	2420.74951	-373.89685	903.53601	2106.44434	-195.18474	802.13477	2500.05981	-393.03000	781.67328	1913.12109	-255.02492	922.76147	2358.51978							-307.38242	518.33087	2457.73535	-336.53677	470.51187	2123.84375	-46.68594	251.88849	2351.90576				
636	6.350	-114.22437	1537.59033	2179.05591	-259.28986	1513.85962	2265.81372							-127.55383	1292.28345	2379.26929	-48.13928	936.85016	2134.45728	-321.15500	1235.24304	2229.01611				-79.95441	1000.46051	2423.99927				-204.10281	803.16882	2504.04980	-400.83630	785.08832	1916.77209	-258.34296	924.07111	2355.46899							-323.35947	522.87982	2458.82520	-336.13248	468.91296	2120.25781	-65.34572	247.49223	2363.43457				
637	6.360	-118.45552	1538.05579	2181.95728	-264.91110	1513.86328	2267.58301							-135.41463	1292.59143	2382.43457	-50.95609	937.76550	2140.37427	-326.28149	1235.85596	2228.81372				-88.10671	1000.79840	2428.49097				-212.44708	804.28247	2507.10596	-408.41571	787.72687	1923.23047	-274.61453	925.80542	2364.00537							-338.04163	525.69910	2457.07324	-335.35541	468.15054	2116.80298	-84.29109	242.69060	2375.54858				
638	6.370	-122.47293	1538.61218	2186.29077										-143.70065	1293.45105	2385.55249	-54.17462	938.83575	2149.97852	-331.81259	1236.25720	2229.47876				-96.53423	1002.14185	2432.91284				-220.65334	804.59985	2510.27344	-415.60977	791.53107	1926.41260	-283.31961	926.00531	2364.32544							-351.15512	529.75641	2457.37207	-332.97150	465.96140	2118.01367	-103.68280	237.60921	2387.92163				
639	6.380	-127.00522	1539.41064	2191.74463										-152.40692	1293.91956	2389.60889	-57.41214	939.64874	2157.31445	-337.21609	1236.84802	2229.21338				-105.08131	1003.62097	2437.70703				-229.06914	805.50446	2513.79321	-422.76404	793.73688	1932.47217	-291.65820	926.76361	2365.45508							-364.40546	532.64783	2454.94897	-331.58170	465.08478	2118.92480	-123.79498	233.35840	2400.95508				
640	6.390	-131.36218	1539.16455	2194.67212										-160.99208	1294.83374	2393.28564	-60.17593	940.89703	2164.00635	-342.47086	1236.94373	2228.94556				-113.83581	1004.13806	2442.78955				-237.26007	805.87213	2517.53906	-429.39270	796.74194	1937.19739	-300.64276	926.66003	2365.59570							-376.56671	536.05212	2454.36206	-330.95670	465.45380	2114.88525	-144.53802	227.60020	2413.83252				
641	6.400	-135.27759	1539.19604	2199.11841										-169.92319	1295.76489	2396.98438	-63.42513	941.28815	2171.40088	-347.48584	1237.38745	2227.26343				-122.66138	1005.06775	2448.27515				-245.65109	806.46741	2522.18262	-435.82639	799.96161	1943.24463	-309.62589	927.17590	2367.70093							-388.93735	537.79938	2450.37354	-330.82227	465.41107	2114.71045	-165.73018	220.57228	2425.96899				
642	6.410	-139.92053	1539.95691	2204.27686										-178.88232	1296.22998	2400.12427	-66.64166	942.41107	2179.55444	-352.77820	1237.55737	2227.06299				-131.79427	1006.13513	2454.14893				-253.41290	806.56940	2525.54443	-441.74042	803.47540	1945.49963	-317.82852	926.37573	2366.77954							-400.23239	540.28748	2447.96973	-330.33606	464.52267	2114.57788	-186.91650	214.99057	2439.01514				
643	6.420	-144.40445	1539.62366	2207.37573										-187.90819	1296.87402	2403.12402	-69.84156	943.29700	2185.81152	-358.11591	1237.59827	2226.89282				-141.25354	1006.96942	2459.97168				-261.67227	807.04602	2529.49609	-447.21582	805.85199	1952.03101	-326.99597	926.61371	2367.82886							-411.78711	540.54669	2443.09033	-330.06415	464.55521	2114.22070	-210.02910	209.16922	2452.07544				
644	6.430	-148.32286	1539.74194	2211.72925										-196.85789	1297.03015	2406.49072	-73.29906	944.39532	2192.84375	-363.21292	1237.46021	2226.19922				-150.75644	1008.34784	2465.96265				-270.16891	807.32935	2533.78418	-452.79269	810.29834	1954.32532	-335.36102	926.60687	2368.26978							-421.68246	541.49884	2439.29980	-329.24454	464.20718	2115.45581	-232.56126	203.27390	2463.68774				
645	6.440	-152.92937	1540.09888	2215.96069										-206.09375	1297.36633	2409.12305	-76.59599	945.03741	2200.23291	-368.56601	1237.37488	2225.94678				-159.78291	1009.18640	2470.76685				-278.48410	807.47229	2537.38403	-457.47858	812.31714	1958.33691	-344.44815	926.57922	2368.25513							-431.33084	540.55640	2433.42798	-327.04239	465.37000	2112.53418	-256.85565	197.26830	2475.92432				
646	6.450	-157.52374	1539.87390	2219.75708										-215.52522	1298.04810	2412.42236	-80.33556	946.00250	2206.53296	-373.77921	1237.25952	2225.58032				-169.96309	1010.61761	2476.92456				-287.29456	807.86151	2541.29590	-462.19913	814.88239	1964.97729	-352.29538	925.75421	2368.51782							-440.58755	539.29193	2428.27710	-325.27811	464.61539	2113.01855	-282.06561	191.88068	2486.25928				
647	6.460	-161.21739	1539.32483	2223.44043										-225.51456	1298.51050	2415.91528	-83.96455	946.49323	2213.41235	-378.98862	1237.10205	2225.24609				-179.40118	1011.49463	2481.31689				-296.32550	808.44989	2545.46582	-466.30582	817.81244	1969.28198	-360.15234	925.45929	2367.97754							-448.54608	537.70935	2422.52686	-324.65582	465.19824	2114.00586	-307.49734	187.97478	2497.04248				
648	6.470	-165.93703	1539.08655	2227.94385										-234.92563	1299.14844	2418.40723	-87.45895	947.10461	2220.16479	-384.26544	1236.77368	2224.80176				-189.40311	1012.52069	2486.72705				-305.48914	808.98792	2548.92017	-469.83331	821.37415	1969.14990	-368.11749	925.44818	2368.25977							-455.54706	535.97357	2416.39795				-334.15228	184.21988	2505.90918				
649	6.480	-169.54471	1538.31555	2230.88745										-245.01860	1299.15552	2421.50342	-91.05023	947.89404	2227.09839	-389.51047	1236.51611	2224.65625				-198.99756	1013.26233	2491.58496				-314.76486	808.82062	2552.22437	-472.60242	823.66046	1970.80933	-375.74670	925.21210	2367.68237							-461.40237	533.91827	2411.63843				-360.21060	180.55135	2511.86060				
650	6.490	-173.71095	1537.69202	2235.09790										-255.23267	1300.18311	2424.45166	-94.80460	948.85468	2234.04590	-394.70712	1235.93323	2223.95166				-209.29425	1014.61353	2497.07056				-324.53052	809.51105	2555.24780	-475.43018	826.72693	1975.12915	-383.25311	924.65320	2367.69238							-466.38477	530.33142	2405.27368				-387.56708	179.02405	2517.42236				
651	6.500	-176.98285	1536.10437	2238.24780										-265.18500	1300.07751	2426.58301	-98.73497	949.89307	2241.40137	-399.77887	1235.20056	2223.19287				-218.72591	1015.15845	2500.24927				-334.87375	810.10211	2559.16357	-476.99954	827.14941	1977.03088										-470.29147	528.53406	2400.27686				-414.40356	178.55865	2519.47266				
652	6.510	-180.46016	1534.43384	2241.62695													-102.40420	950.48230	2249.51709	-404.89563	1234.38220	2222.77881				-229.16710	1016.38696	2505.09692				-345.21866	810.47522	2562.22363	-478.40213	830.09595	1979.61914										-473.58524	525.39899	2395.71313				-439.80151	180.29170	2521.06665				
653	6.520	-184.12236	1532.73230	2245.42554													-106.31891	951.48926	2256.79175	-410.06622	1233.44153	2222.07031				-239.16617	1016.80170	2509.04688				-355.71420	811.09851	2565.07715	-478.84149	830.87360	1980.13599										-476.36453	522.33032	2392.10376				-463.58710	182.75710	2520.47461				
654	6.530	-187.18803	1530.61804	2249.02930													-110.33282	952.10046	2264.53589	-415.14828	1232.31470	2221.71387				-249.99611	1018.52393	2513.64087							-479.08929	831.12604	1980.43152										-479.04004	518.86786	2388.33423				-484.45862	187.18437	2519.69580				
655	6.540	-190.31787	1528.82935	2252.46021													-114.79403	952.73645	2273.36401	-420.24176	1231.11621	2221.25171				-260.35379	1019.13171	2517.41284							-478.64859	829.97083	1986.00488										-482.51917	516.88470	2386.30981				-503.80341	192.50911	2518.74316				
656	6.550	-193.34613	1526.68469	2255.83301													-119.58439	953.00146	2281.31616	-424.79575	1229.84888	2220.17871				-271.55515	1020.02753	2521.69360							-477.89822	829.21082	1987.58081										-485.24231	515.35565	2385.35132				-521.56891	197.11819	2516.81592				
657	6.560	-196.46861	1524.70251	2259.20020													-123.77423	953.83746	2291.23560	-429.22141	1228.79333	2219.83130				-282.99554	1021.13953	2525.88403							-476.83936	829.77344	1987.41626										-490.65573	514.29895	2384.38672				-538.13977	201.95203	2514.65063				
658	6.570	-199.47267	1522.66199	2262.80640													-129.72725	954.09613	2297.57544	-433.45917	1227.53076	2218.90942				-294.84311	1022.19604	2530.08032							-474.77383	827.03461	1987.62439										-496.68451	513.44733	2383.37817										
659	6.580	-203.22273	1520.80493	2267.60034													-134.90927	954.60712	2306.41577	-437.73102	1226.54199	2218.72900				-307.23621	1023.38629	2534.48242							-472.67383	825.40137	1989.38379										-503.57990	512.37122	2381.01953										
660	6.590	-206.59390	1519.30652	2271.54932													-141.87958	954.78833	2314.76025	-441.98834	1225.76636	2218.17188													-470.02710	822.48126	1989.82568										-509.62076	511.47604	2377.76074										
661	6.600	-210.27284	1518.03577	2275.95239													-148.26801	954.49310	2322.64087	-445.54431	1225.08936	2217.16968													-466.97839	819.45532	1990.85474										-516.82605	511.07919	2375.32715										
662	6.610	-214.31866	1517.17175	2281.10400													-155.52921	953.95746	2330.39697	-448.88312	1224.75232	2217.28784													-463.11032	816.24286	1992.49170										-523.40131	510.01038	2373.28320										
